<svg xmlns="http://www.w3.org/2000/svg" style="isolation:isolate" width="512" height="512"><g fill="#FFF"><path d="M256 379.59c68.41 0 123.59-55.62 123.59-123.59S323.97 132.41 256 132.41 132.41 188.03 132.41 256 187.6 379.59 256 379.59zm0-211.42A87.78 87.78 0 01343.83 256 87.78 87.78 0 01256 343.83 87.78 87.78 0 01168.17 256 87.78 87.78 0 01256 168.17zM274.1 75.03V18.1A17.9 17.9 0 00256 0a17.9 17.9 0 00-18.1 18.1v56.93a17.9 17.9 0 0018.1 18.1 17.9 17.9 0 0018.1-18.1zM237.9 436.97v56.93A17.9 17.9 0 00256 512a17.9 17.9 0 0018.1-18.1v-56.93a17.9 17.9 0 00-18.1-18.1 17.9 17.9 0 00-18.1 18.1zM396.8 140.8l40.17-40.17a18.12 18.12 0 000-25.6 18.12 18.12 0 00-25.6 0L371.2 115.2a18.12 18.12 0 000 25.6 17.68 17.68 0 0012.8 5.3c4.86 0 9.27-1.77 12.8-5.3zM75.03 436.97a17.68 17.68 0 0012.8 5.3c4.42 0 9.27-1.77 12.8-5.3l40.17-40.17a18.12 18.12 0 000-25.6 18.12 18.12 0 00-25.6 0l-40.17 40.17a18.12 18.12 0 000 25.6zM512 256a17.9 17.9 0 00-18.1-18.1h-56.93a17.9 17.9 0 00-18.1 18.1 17.9 17.9 0 0018.1 18.1h56.93c9.71 0 18.1-7.95 18.1-18.1zM18.1 274.1h56.93a17.9 17.9 0 0018.1-18.1 17.9 17.9 0 00-18.1-18.1H18.1A17.9 17.9 0 000 256c0 10.15 8.39 18.1 18.1 18.1zM424.17 442.26c4.4 0 9.26-1.76 12.8-5.3a18.12 18.12 0 000-25.6L396.8 371.2a18.12 18.12 0 00-25.6 0 18.12 18.12 0 000 25.6l40.17 40.17a18.43 18.43 0 0012.8 5.3zM140.8 140.8a18.12 18.12 0 000-25.6l-40.17-40.17a18.12 18.12 0 00-25.6 0 18.12 18.12 0 000 25.6l40.17 40.17a17.68 17.68 0 0012.8 5.3c4.85 0 9.27-1.77 12.8-5.3z"/></g></svg>