<svg xmlns="http://www.w3.org/2000/svg" viewBox="0 0 512 512"><path fill="#ffffff" d="M337.56 189.25l-5.03 29.3a11.8 11.8 0 004.73 11.62 11.8 11.8 0 0012.52.9l26.3-13.82 26.3 13.82a11.93 11.93 0 0012.54-.9 11.8 11.8 0 004.73-11.62l-5.03-29.3 21.29-20.74a11.8 11.8 0 003-12.19 11.8 11.8 0 00-9.6-8.09l-29.4-4.27-13.16-26.66a11.82 11.82 0 00-10.66-6.62 11.8 11.8 0 00-10.66 6.62l-13.16 26.66-29.41 4.27c-4.5.66-8.18 3.75-9.6 8.1-1.4 4.32-.25 8.99 3.01 12.18l21.29 20.74zm21.26-29.88a8.1 8.1 0 006.1-4.43l11.17-22.64 11.17 22.64a8.1 8.1 0 006.1 4.43l24.98 3.63-18.07 17.62a8.1 8.1 0 00-2.33 7.17l4.26 24.88-22.34-11.74a8.1 8.1 0 00-7.54 0l-22.35 11.74 4.27-24.88a8.1 8.1 0 00-2.33-7.17L333.83 163l24.99-3.63z"/><path fill="#ffffff" d="M445.9 429.5a227.9 227.9 0 01-172.73-53.13 8.1 8.1 0 00-10.52 12.32 244.11 244.11 0 00160.28 58.35 238.88 238.88 0 01-144.94 48.76c-132.23 0-239.8-107.57-239.8-239.8 0-127.34 99.77-231.82 225.25-239.36a244.1 244.1 0 00-86.47 186.35c0 62.65 23.7 122.2 66.73 167.69a8.1 8.1 0 0011.76-11.14A226.92 226.92 0 01193.16 203a227.99 227.99 0 0199.11-188A8.1 8.1 0 00288 .2C284.3.07 281.02 0 278 0 209.6 0 145.32 26.63 96.97 74.98 48.6 123.33 21.99 187.62 21.99 256S48.6 388.67 96.97 437.02C145.32 485.37 209.6 512 277.99 512a255.13 255.13 0 00174.3-68.52 8.1 8.1 0 00-6.4-13.99z"/><path fill="#ffffff" d="M327.46 325.24a32.93 32.93 0 0032.9 32.9 32.93 32.93 0 0032.9-32.9 32.93 32.93 0 00-32.9-32.9 32.93 32.93 0 00-32.9 32.9zm49.6 0c0 9.2-7.5 16.7-16.7 16.7s-16.7-7.5-16.7-16.7 7.5-16.7 16.7-16.7 16.7 7.5 16.7 16.7zM472.7 256a17.31 17.31 0 100 34.63 17.31 17.31 0 000-34.63z"/></svg>