<svg xmlns="http://www.w3.org/2000/svg" style="isolation:isolate" width="512" height="512"><path fill="#ffffff" d="M98.6 402.7a11.8 11.8 0 00-13.2 10l-6 43.2A11.8 11.8 0 0091 469.4c5.7 0 10.6-4.3 11.5-10.2l6-43.2c.9-6.4-3.6-12.4-10-13.3zm62.4 0a11.7 11.7 0 00-13.2 10l-12 85.8a11.8 11.8 0 0011.5 13.5c5.7 0 10.7-4.2 11.5-10.1l12-85.9c1-6.4-3.5-12.4-9.8-13.3zm64.6 0a11.7 11.7 0 00-13.2 10l-12 85.8a11.8 11.8 0 0011.5 13.5c5.7 0 10.7-4.2 11.5-10.1l12-85.9c1-6.4-3.5-12.4-9.8-13.3zm62.3 0a11.7 11.7 0 00-13.1 10l-6 43.2a11.8 11.8 0 0011.5 13.5c5.7 0 10.7-4.3 11.5-10.2l6-43.2c1-6.4-3.5-12.4-9.9-13.3zm130-232a96 96 0 00-111-78.6c-18.9 3.4-35.9 12.2-49.5 25.6a93.3 93.3 0 00-103 40.6 64.6 64.6 0 00-34.3-9.8 66 66 0 00-64.8 75.8 79.3 79.3 0 00-49.2 73.9C6.1 341.4 40 374 84.6 374h216.2a79.1 79.1 0 0074.4-104.6 98 98 0 0042.7-98.6zM300.8 350.6H84.6c-31.5 0-55.2-22.5-55.2-52.3 0-26 17.4-48.5 42.4-54.5 3.1-.8 5.9-2.8 7.5-5.7a12 12 0 00.8-9.5 42.5 42.5 0 0140-56.4c11.2 0 21.7 4.3 29.7 12.3a11.5 11.5 0 0018.8-3.5 71.9 71.9 0 0165.3-42.7 72.3 72.3 0 0170 88.3c-.9 6.1 3 12 9 13.3a56.2 56.2 0 01-12.1 110.7zm63.7-102.2a79 79 0 00-36.2-28.3 96.5 96.5 0 00-46.6-92.1 71.3 71.3 0 0129.3-12.5 72.5 72.5 0 0184 59.5c5 28.6-7.4 57.4-30.5 73.4zM323.8 56.7h.1c6.4 0 11.6-5.4 11.6-11.9l-.3-33C335.2 5.1 330 0 323.6 0 317 0 311.8 5.4 312 11.9l.2 33c0 6.6 5.2 11.8 11.6 11.8zm170.5 132h-.1l-32.7.2c-6.4 0-11.6 5.3-11.5 11.8 0 6.5 5.2 11.7 11.6 11.7l32.7-.2c6.4 0 11.6-5.3 11.6-11.8 0-6.5-5.3-11.8-11.6-11.8zM428 98.8c3 0 6-1.2 8.2-3.5l23-23.6c4.5-4.6 4.4-12-.1-16.7-4.6-4.5-12-4.5-16.5.1l-23 23.6c-4.4 4.6-4.4 12.1.2 16.7 2.3 2.2 5.2 3.4 8.2 3.4zm-224.7-3.5a11.4 11.4 0 0016.4 0c4.6-4.5 4.7-12 .1-16.6L197 55.2a11.5 11.5 0 00-16.4 0c-4.6 4.5-4.7 12-.1 16.6l22.9 23.6zm220.1 193.2a11.5 11.5 0 00-16.4-.1c-4.6 4.6-4.6 12-.1 16.7l23 23.5a11.5 11.5 0 0016.4.1c4.6-4.5 4.6-12 0-16.6l-22.9-23.6z"/></svg>