<svg xmlns="http://www.w3.org/2000/svg" style="isolation:isolate" width="512" height="512"><path fill="#ffffff" d="M114.55 396.02a12.6 12.6 0 00-14.13 10.65l-6.47 45.82a12.53 12.53 0 0012.4 14.25c6.13 0 11.48-4.5 12.37-10.75l6.46-45.82a12.51 12.51 0 00-10.63-14.15zm67.04 0a12.54 12.54 0 00-14.14 10.62l-12.92 91.08a12.5 12.5 0 1024.75 3.52l12.93-91.08a12.51 12.51 0 00-10.62-14.14zm69.42 0a12.54 12.54 0 00-14.13 10.62l-12.92 91.08a12.5 12.5 0 1024.75 3.52l12.93-91.08A12.52 12.52 0 00251 396.02zm67.02 0a12.58 12.58 0 00-14.12 10.65l-6.46 45.82a12.5 12.5 0 1024.76 3.5l6.45-45.82a12.51 12.51 0 00-10.63-14.15zm163.75-277.44c0-.57-.03-1.14-.07-1.7a12.5 12.5 0 00-22.2-7.7 66.64 66.64 0 01-51.83 24.7c-36.86 0-66.86-30.03-66.86-66.93a66.76 66.76 0 0118.24-45.84 12.52 12.52 0 00-10.54-21C285.6 7.51 243.35 51.75 243.35 110.22c0 .78.1 1.53.23 2.27a93.41 93.41 0 00-69 40.83 64.06 64.06 0 00-32.75-8.91c-35.62 0-64.6 29.03-64.6 64.7 0 2.78.16 5.55.52 8.26a77.03 77.03 0 00-47.53 71.44c0 42.05 33.2 73.76 77.23 73.76h209.28c42.59 0 77.23-34.69 77.23-77.3a77.4 77.4 0 00-17.93-49.3c58.4-10.3 105.75-60.74 105.75-117.4zM316.72 337.54H107.44c-29.77 0-52.22-20.95-52.22-48.72a52.08 52.08 0 0140.1-50.9 12.44 12.44 0 008.04-6.12c1.7-3.06 2.03-6.72.9-10.06a39.68 39.68 0 0137.56-52.3 39.3 39.3 0 0127.85 11.49 12.39 12.39 0 0011.06 3.38c4.03-.73 7.43-3.4 9.13-7.12a68.35 68.35 0 0162.13-40.1c37.6 0 68.18 30.6 68.18 68.24 0 3.44-.96 10.85-1.55 14.74a12.52 12.52 0 009.6 14.16c23.6 5.29 40.74 26.77 40.74 51.03a52.3 52.3 0 01-52.24 52.28zm37.52-124.64c-2.28 0-4.4.66-6.23 1.72-1.1-.5-2.18-1-3.3-1.44.28-2.74.48-5.55.48-7.84 0-46.02-33.5-84.26-77.34-91.82.3-1.05.5-2.14.5-3.29 0-35.75 20.93-64.7 54.33-78.06a91.39 91.39 0 00-6.85 34.77c0 50.7 41.22 91.97 91.87 91.97a91.42 91.42 0 0043.59-10.99c-14.1 36.9-53.44 64.98-97.05 64.98z"/></svg>