<svg xmlns="http://www.w3.org/2000/svg" style="isolation:isolate" width="512" height="512"><path fill="#ffffff" d="M411.25 145.67c-5.3-72.88-68.4-130.61-145.21-130.61-60.93 0-114.63 36.03-136.05 90.43a124.2 124.2 0 00-4.5-.08C56.29 105.41 0 161.71 0 230.9c0 69.2 56.3 125.5 125.5 125.5h18.23l-2.5 6.37a10.05 10.05 0 009.36 13.7h100.4V486.9a10.04 10.04 0 0019.1 4.3l64.18-135.31c.82.21 1.62.5 2.52.5 24.94 0 74.8-.12 75.3-.14C468.1 353.37 512 307.13 512 250.98c0-56.57-44.78-102.87-100.75-105.31zm-140.2 296.64v-75.88c.01-5.55-4.48-10.04-10.03-10.04H165.3l65.61-167.66V296.4c0 5.54 4.5 10.04 10.04 10.04h94.56L271.06 442.3zm140.5-106.13s-41.81.1-68 .13l16.9-35.6a10.02 10.02 0 00-9.08-14.35H250.98V135.52a10.03 10.03 0 00-19.4-3.65L151.6 336.3l-24.47-.01h-1.63c-58.13 0-105.41-47.28-105.41-105.4 0-58.13 47.28-105.42 105.41-105.42 3.5 0 6.97.17 10.4.5 4.61.49 9.03-2.37 10.5-6.84 16.6-50.24 64.7-84 119.65-84 69.2 0 125.5 54.04 125.5 120.46 0 5.44 4.33 9.9 9.77 10.04 1.24.02 2.45.02 3.68.01l1.6-.01c47.05 0 85.34 38.28 85.34 85.33 0 45.46-35.53 82.89-80.39 85.21z"/></svg>