<svg xmlns="http://www.w3.org/2000/svg" style="isolation:isolate" width="512" height="512"><path fill="#ffffff" d="M426.3 185.8C415.3 102.2 361.6 41 276.8 41 205.8 41 166.4 84 142 150.3c-8.8-2.2-18-3.2-27.1-3.2C51.5 147 0 202.3 0 265.8 0 326.5 49.7 370.5 110.7 374h13.8v-27.6h-13.8c-44-2.7-83-36.6-83-80.7a90.1 90.1 0 0187.3-87.3 84 84 0 0131.5 6.2l16.7 6.8 4.5-17.4c15.6-60.8 46.4-105 109-105 73.6 0 116.2 59.5 119.5 133l.8 16 19-1.4c35.6 0 68.4 27.6 68.4 63.1 0 35.6-33.6 66.6-69.2 66.6h-41.6v27.7h41.5c53 0 96.9-41.4 96.9-94.3a95 95 0 00-85.7-94zm-91.5 109.3l-13.7 8.3 1.3-14.1-21.7-2.1-2.8 30.2-37.9 23v-46l23.6-17.6-12.6-18.6-11 8.2v-16.7h-21.9v16.7l-11-8.2-12.6 18.7 23.7 17.6v46l-38-23-2.7-30.3-21.7 2.1 1.3 14.2-13.8-8.4-11 19.8 13.8 8.4-12.3 5.8L163 350l26.3-12.7 38 23-38 23-26.3-12.7-9.2 20.9 12.3 5.9-13.7 8.3 11 19.9 13.6-8.4-1.2 14.2 21.7 2 2.7-30.2 38-23v46l-23.7 17.6 12.7 18.7 11-8.2V471H260v-16.7l11 8.2 12.6-18.7-23.6-17.6v-46l37.9 23 2.7 30.3 21.7-2.1-1.2-14.2 13.7 8.4 11-19.9-13.8-8.3 12.3-5.9-9.1-20.8-26.4 12.6-38-23 38-23 26.4 12.7 9-20.8-12.2-6 13.7-8.3-10.9-19.8z"/></svg>